<svg width="30" height="14" viewBox="0 0 30 14" fill="none" xmlns="http://www.w3.org/2000/svg">
<path fill-rule="evenodd" clip-rule="evenodd" d="M2.52812 12.7591C1.19578 12.759 0.115759 11.679 0.115711 10.3467L0.115746 3.10964C0.115704 1.77729 1.19575 0.697242 2.5281 0.697284L26.6516 0.697292C27.9839 0.697248 29.064 1.77729 29.0639 3.10964L29.064 10.3467C29.0639 11.679 27.9839 12.759 26.6516 12.7591L2.52812 12.7591ZM3.73431 10.3467C3.06809 10.3467 2.52812 9.80668 2.52806 9.14047L2.52808 4.31579C2.52811 3.64966 3.06813 3.10964 3.73425 3.10962V4.31578C3.73423 4.98192 4.27428 5.52197 4.94042 5.52195C5.60663 5.52201 6.14666 4.98199 6.14659 4.31577L6.1466 3.1096L8.55893 3.10959L8.559 6.72819C8.55898 7.39431 9.09904 7.93437 9.76516 7.93435C10.4313 7.93432 10.9713 7.39431 10.9713 6.72818L10.9713 3.10968L13.3837 3.10968L13.3837 4.31584C13.3837 4.98195 13.9237 5.52201 14.5898 5.52201C15.2559 5.52201 15.796 4.98195 15.796 4.31584L15.796 3.10968L18.2084 3.10959L18.2083 6.72818C18.2084 7.39431 18.7484 7.93434 19.4145 7.93436C20.0807 7.93429 20.6207 7.39432 20.6207 6.72819L20.6207 3.10959L23.0331 3.10961L23.0331 4.31578C23.0331 4.98191 23.5731 5.52194 24.2393 5.52195C24.9054 5.52198 25.4455 4.98193 25.4454 4.31579L25.4454 3.10963C26.1116 3.10964 26.6516 3.64967 26.6516 4.3158L26.6516 9.14048C26.6516 9.80669 26.1116 10.3467 25.4455 10.3466L3.73431 10.3467Z" fill="#DADADA"/>
</svg>
