<svg width="37" height="30" viewBox="0 0 37 30" fill="none" xmlns="http://www.w3.org/2000/svg">
<path d="M1.68164 10.2207H29.6475C30.8169 10.2207 31.9383 10.6811 32.7652 11.5005C33.5921 12.32 34.0566 13.4313 34.0566 14.5902V17.5082H1.68164V10.2207Z" stroke="#DADADA" stroke-width="2" stroke-miterlimit="10"/>
<path d="M34.0566 17.5083H1.68164V23.3445H34.0566V17.5083Z" stroke="#DADADA" stroke-width="2" stroke-miterlimit="10"/>
<path d="M1.68164 29.1806V0" stroke="#DADADA" stroke-width="2" stroke-miterlimit="10"/>
<path d="M34.0566 29.1804V23.3443" stroke="#DADADA" stroke-width="2" stroke-miterlimit="10"/>
<path d="M4.85747 4.38477H8.80414C9.64642 4.38477 10.4542 4.71635 11.0498 5.30657C11.6454 5.89678 11.98 6.69729 11.98 7.53199C11.98 8.24249 11.6962 8.92411 11.1907 9.42794C10.6852 9.93177 9.999 10.2168 9.28206 10.2209H4.39497C3.67535 10.2209 2.98521 9.93758 2.47636 9.43332C1.96751 8.92905 1.68164 8.24513 1.68164 7.53199C1.68164 6.69729 2.01624 5.89678 2.61182 5.30657C3.2074 4.71635 4.01519 4.38477 4.85747 4.38477Z" stroke="#DADADA" stroke-width="2" stroke-miterlimit="10"/>
<path d="M17.8691 10.2207V17.5082" stroke="#DADADA" stroke-width="2" stroke-miterlimit="10"/>
</svg>
