<svg width="22" height="22" viewBox="0 0 22 22" fill="none" xmlns="http://www.w3.org/2000/svg">
<path fill-rule="evenodd" clip-rule="evenodd" d="M11 16.5C14.0376 16.5 16.5 14.0376 16.5 11C16.5 7.96243 14.0376 5.5 11 5.5C7.96243 5.5 5.5 7.96243 5.5 11C5.5 14.0376 7.96243 16.5 11 16.5ZM11 14.6667C13.025 14.6667 14.6667 13.025 14.6667 11C14.6667 8.97496 13.025 7.33333 11 7.33333C8.97496 7.33333 7.33333 8.97496 7.33333 11C7.33333 13.025 8.97496 14.6667 11 14.6667Z" fill="#EBEBEB"/>
<path d="M16.4997 4.58337C15.9934 4.58337 15.583 4.99378 15.583 5.50004C15.583 6.0063 15.9934 6.41671 16.4997 6.41671C17.0059 6.41671 17.4163 6.0063 17.4163 5.50004C17.4163 4.99378 17.0059 4.58337 16.4997 4.58337Z" fill="#EBEBEB"/>
<path fill-rule="evenodd" clip-rule="evenodd" d="M1.51646 3.91968C0.916992 5.0962 0.916992 6.63634 0.916992 9.71663V12.2833C0.916992 15.3636 0.916992 16.9038 1.51646 18.0802C2.04376 19.1151 2.88515 19.9565 3.92005 20.4838C5.09656 21.0833 6.63671 21.0833 9.71699 21.0833H12.2837C15.3639 21.0833 16.9041 21.0833 18.0806 20.4838C19.1155 19.9565 19.9569 19.1151 20.4842 18.0802C21.0837 16.9038 21.0837 15.3636 21.0837 12.2833V9.71663C21.0837 6.63634 21.0837 5.0962 20.4842 3.91968C19.9569 2.88478 19.1155 2.04339 18.0806 1.51609C16.9041 0.916626 15.3639 0.916626 12.2837 0.916626H9.71699C6.63671 0.916626 5.09656 0.916626 3.92005 1.51609C2.88515 2.04339 2.04376 2.88478 1.51646 3.91968ZM12.2837 2.74996H9.71699C8.1466 2.74996 7.07905 2.75139 6.2539 2.8188C5.45013 2.88447 5.0391 3.0035 4.75236 3.1496C4.06243 3.50114 3.50151 4.06207 3.14996 4.752C3.00387 5.03873 2.88484 5.44976 2.81917 6.25353C2.75176 7.07869 2.75033 8.14623 2.75033 9.71663V12.2833C2.75033 13.8537 2.75176 14.9212 2.81917 15.7464C2.88484 16.5502 3.00387 16.9612 3.14996 17.248C3.50151 17.9378 4.06243 18.4987 4.75236 18.8503C5.0391 18.9964 5.45013 19.1155 6.2539 19.1811C7.07905 19.2485 8.1466 19.25 9.71699 19.25H12.2837C13.8541 19.25 14.9215 19.2485 15.7467 19.1811C16.5506 19.1155 16.9616 18.9964 17.2483 18.8503C17.9382 18.4987 18.4991 17.9378 18.8507 17.248C18.9968 16.9612 19.1159 16.5502 19.1815 15.7464C19.2489 14.9212 19.2503 13.8537 19.2503 12.2833V9.71663C19.2503 8.14623 19.2489 7.07869 19.1815 6.25353C19.1159 5.44976 18.9968 5.03873 18.8507 4.752C18.4991 4.06207 17.9382 3.50114 17.2483 3.1496C16.9616 3.0035 16.5506 2.88447 15.7467 2.8188C14.9215 2.75139 13.8541 2.74996 12.2837 2.74996Z" fill="#EBEBEB"/>
</svg>
