<svg width="52" height="20" viewBox="0 0 52 20" fill="none" xmlns="http://www.w3.org/2000/svg">
<g clip-path="url(#clip0_2688_1461)">
<path d="M26.5735 -0.0478516L24.3873 4.12005L22.201 -0.0478516H19.459V8.79289H21.4562V2.74227L24.3625 8.16079L27.2689 2.7682V8.79289H29.3168V-0.0478516H26.5747H26.5735Z" fill="#101010"/>
<path d="M37.063 -0.0478516L34.7385 3.57684L32.425 -0.0478516H29.9238L33.5885 5.49659V8.79412H35.7624V5.49659L39.4259 -0.0478516H37.063Z" fill="#101010"/>
<path d="M6.67851 4.11287C6.93048 4.0388 7.20715 3.98324 7.50977 3.94991V-0.0451528C6.3549 0.0437361 5.32972 0.270897 4.43053 0.631391C3.23737 1.11164 2.32212 1.80546 1.68355 2.71164C1.04497 3.61781 0.725066 4.69929 0.725066 5.95732C0.725066 7.38077 1.14996 8.55485 2.00221 9.47954C2.85324 10.4042 4.06492 11.0055 5.63604 11.2832L7.50853 11.6116V7.31287C6.70198 7.16596 6.12022 6.96226 5.76079 6.70546C5.40012 6.44744 5.22103 6.07707 5.22103 5.59682C5.22103 5.24621 5.34578 4.94497 5.59528 4.69559C5.84478 4.44621 6.20545 4.25238 6.67851 4.11287ZM5.91518 15.2351C4.91594 14.819 3.8253 14.1302 2.64079 13.1684L-0.0234375 16.6351C1.1796 17.6524 2.54815 18.4474 4.08345 19.0203C5.21485 19.4437 6.35737 19.7104 7.50977 19.819V15.7104C6.96136 15.6079 6.42901 15.4474 5.91518 15.2339V15.2351ZM15.8075 9.84003C14.8355 8.89682 13.4163 8.27707 11.5475 7.98201L9.73181 7.68201V12.0005L9.91091 12.0314C10.8916 12.1968 11.5845 12.4277 11.9921 12.724C12.3985 13.0203 12.6023 13.4363 12.6023 13.9721C12.6023 14.3598 12.464 14.6981 12.1873 14.9832C11.9094 15.2709 11.5117 15.4869 10.9941 15.6363C10.6285 15.74 10.2086 15.8079 9.73305 15.8376V19.8511C11.0781 19.7697 12.2663 19.5203 13.2977 19.103C14.5749 18.5857 15.5543 17.8511 16.2386 16.8981C16.9229 15.9462 17.2663 14.8141 17.2663 13.5005C17.2663 12.003 16.7808 10.7832 15.8088 9.84003H15.8075ZM13.047 0.646206C11.9366 0.274601 10.8311 0.0437367 9.73181 -0.0463867V4.02892C11.2572 4.30053 12.7876 5.02769 14.3229 6.2067L16.8488 2.68448C15.7754 1.81534 14.5094 1.13633 13.047 0.646206Z" fill="#101010"/>
<path d="M26.7545 12.4077C26.4939 11.9793 26.1382 11.6411 25.6886 11.3917C25.2377 11.1435 24.7214 11.0201 24.1421 11.0201H19.4844V19.8509H21.6545V16.6843H24.1421C24.7128 16.6843 25.2278 16.5621 25.6824 16.3176C26.1357 16.0744 26.4939 15.7398 26.7545 15.3139C27.0151 14.8905 27.146 14.4127 27.146 13.883C27.146 13.3534 27.0151 12.8349 26.7545 12.4065V12.4077ZM24.6597 14.6151C24.4658 14.8003 24.2088 14.8929 23.8889 14.8929H21.6545V12.8744H23.8889C24.2088 12.8744 24.4658 12.9682 24.6597 13.1584C24.8536 13.3472 24.9499 13.5942 24.9499 13.8966C24.9499 14.1991 24.8536 14.43 24.6597 14.6151Z" fill="#101010"/>
<path d="M32.2204 11.0201H29.734L26.1113 19.8509H28.3692L29.1906 17.7188H32.6354L33.4432 19.8509H35.7912L32.2192 11.0201H32.2204ZM29.8477 15.9917L30.9334 13.1658L31.9944 15.9917H29.8477Z" fill="#101010"/>
<path d="M41.6312 17.6927C41.2643 17.8779 40.8666 17.9705 40.438 17.9705C40.0687 17.9705 39.7253 17.9075 39.4103 17.7816C39.0941 17.6557 38.8212 17.4767 38.589 17.2458C38.358 17.0137 38.1764 16.7446 38.0467 16.4372C37.9158 16.131 37.8516 15.7964 37.8516 15.4347C37.8516 15.073 37.9146 14.7236 38.0406 14.4125C38.1665 14.1014 38.3432 13.8322 38.5717 13.6051C38.7989 13.3767 39.0657 13.1989 39.3733 13.068C39.6808 12.9372 40.0106 12.873 40.3639 12.873C40.8098 12.873 41.2236 12.9693 41.6065 13.1631C41.9894 13.3569 42.3364 13.6507 42.6477 14.0458L44.1126 12.6088C43.8433 12.2544 43.5086 11.9507 43.1084 11.694C42.7094 11.4372 42.2734 11.2384 41.8028 11.0952C41.331 10.952 40.8505 10.8804 40.3639 10.8804C39.6981 10.8804 39.0781 10.9964 38.5013 11.2273C37.9245 11.4581 37.4205 11.7804 36.987 12.1927C36.5534 12.6051 36.2162 13.0853 35.9766 13.6359C35.737 14.1865 35.6172 14.7865 35.6172 15.4347C35.6172 16.0828 35.737 16.6693 35.9766 17.2199C36.2162 17.7705 36.551 18.2532 36.9808 18.6643C37.4106 19.0779 37.9121 19.3989 38.4889 19.6298C39.0657 19.8606 39.6895 19.9767 40.3639 19.9767C40.8345 19.9767 41.3014 19.9075 41.7646 19.7693C42.2265 19.631 42.6563 19.4322 43.0528 19.1754C43.4481 18.9186 43.7803 18.6186 44.0496 18.273L42.6242 16.873C42.329 17.2347 41.9992 17.5088 41.6336 17.6927H41.6312Z" fill="#101010"/>
<path d="M47.1382 17.9704V16.305H50.3076V14.4877H47.1382V12.8988H51.9343V11.0186H44.9668V19.8494H51.9849V17.9692H47.137L47.1382 17.9704Z" fill="#101010"/>
</g>
<defs>
<clipPath id="clip0_2688_1461">
<rect width="52" height="20" fill="white"/>
</clipPath>
</defs>
</svg>
