<svg width="22" height="16" viewBox="0 0 22 16" fill="none" xmlns="http://www.w3.org/2000/svg">
<path fill-rule="evenodd" clip-rule="evenodd" d="M8.78728 10.8447V4.67172C10.9787 5.70289 12.676 6.69902 14.6833 7.77299C13.0277 8.69117 10.9787 9.72139 8.78728 10.8447ZM21.0001 1.6016C20.6221 1.10356 19.9778 0.715886 19.2919 0.587538C17.2758 0.204683 4.69808 0.203594 2.68307 0.587538C2.13302 0.690652 1.64322 0.939893 1.22247 1.32714C-0.550399 2.97263 0.0051328 11.7969 0.432462 13.2263C0.612158 13.845 0.844459 14.2912 1.13702 14.5841C1.51394 14.9713 2.03001 15.2379 2.62279 15.3575C4.2828 15.7009 12.8348 15.8928 19.2568 15.4091C19.8485 15.306 20.3722 15.0307 20.7853 14.627C22.4245 12.9881 22.3128 3.66833 21.0001 1.6016Z" fill="#EBEBEB"/>
</svg>
